<svg xmlns="http://www.w3.org/2000/svg" width="256" height="256"><path fill-opacity=".086" d="M0 128.004v128.004l128.25-.254 128.25-.254.254-127.75L257.008 0H0v128.004m.485.496c0 70.4.119 99.053.265 63.672.146-35.38.146-92.98 0-128C.604 29.153.485 58.1.485 128.5" fill="#1976D2" fill-rule="evenodd"/><path fill-opacity=".283" d="M10.907 2.327C8.483 3.606 5.15 6.57 3.5 8.913l-3 4.259-.297 112.664c-.205 78.105.033 113.8.777 116.369 1.393 4.809 5.302 9.388 10.106 11.839C14.825 255.951 17.739 256 128 256c110.931 0 113.154-.038 116.982-1.991 4.061-2.072 7.572-6.102 10.376-11.913 1.493-3.095 1.641-13.604 1.627-116-.009-61.928-.395-111.997-.859-111.265-.603.951-1.007.516-1.415-1.525-.725-3.624-6.755-9.88-11.392-11.817C240.235.2 224.647 0 127.535 0H15.315l-4.408 2.327M.483 128c0 62.425.12 87.963.267 56.75.147-31.212.147-82.287 0-113.5C.603 40.038.483 65.575.483 128m37.763-.25L38.5 237.5l22.25.269 22.25.269v-72.233c0-61.355.207-72.013 1.376-70.769 1.197 1.274 9.896 15.394 42.177 68.464 4.014 6.6 15.81 25.95 26.212 43l18.914 31H216.5l.254-109.75.255-109.75H172v72.214c0 61.374-.207 71.995-1.377 70.75-.758-.805-15.459-24.639-32.669-52.964-51.358-84.528-53.142-87.45-54.191-88.75-.752-.933-6.689-1.25-23.39-1.25H37.991l.255 109.75" fill="#1976D2" fill-rule="evenodd"/><path fill-opacity=".234" d="M17.5.491c-.55.184-2.229.605-3.732.936-3.393.748-9.31 5.848-11.569 9.971C.629 14.265.5 23.03.5 127c0 61.875.344 113.729.764 115.232 1.114 3.977 6.611 9.806 11.227 11.903 3.801 1.727 9.795 1.821 115.509 1.821 106.422 0 111.682-.084 115.5-1.852 5.487-2.54 9.182-6.763 11.524-13.17 1.923-5.261 1.976-8.339 1.976-114.67C257 66.169 256.621 17 256.158 17c-.463 0-1.373-1.774-2.022-3.941-1.495-4.988-7.751-10.473-13.637-11.955C237.424.33 203.609.024 127.307.079 67.463.122 18.05.308 17.5.491M.483 128c0 60.775.12 85.637.267 55.25.147-30.388.147-80.113 0-110.5C.603 42.362.483 67.225.483 128M38 128v110h46l.03-71.75c.023-53.793.313-71.249 1.159-69.75 1.244 2.205 59.686 98.157 74.308 122 5.059 8.25 9.733 16.012 10.386 17.25 1.179 2.234 1.355 2.25 24.152 2.25H217V18H171.013l-.256 71.125-.257 71.125-12.395-20.375c-6.817-11.206-18.024-29.6-24.905-40.875-6.88-11.275-16.34-26.8-21.021-34.5-4.681-7.7-12.989-21.312-18.461-30.25L83.768 18H38v110" fill="#1976D2" fill-rule="evenodd"/><path fill-opacity=".273" d="M255.483 128.5c0 60.5.12 85.103.267 54.673.147-30.43.147-79.93 0-110-.147-30.07-.267-5.173-.267 55.327m-6.888 120.738c-3.691 3.849-3.275 4.335.748.871 1.589-1.368 4.257-5.264 3.442-5.026-.157.046-2.042 1.916-4.19 4.155m-237.862 3.886c.679.684 1.486.991 1.793.683.308-.308-.247-.867-1.233-1.243-1.425-.542-1.54-.428-.56.56m228.546.987c-1.928.558-47.785.822-114.192.66-61.033-.149-110.036.074-108.895.496 1.14.422 52.076.647 113.191.5 85.262-.205 111.582-.551 113.117-1.487 2.33-1.42 1.297-1.475-3.221-.169" fill="#1976D2" fill-rule="evenodd"/></svg>